<svg width="100%" height="100%" viewBox="0 0 475 686" version="1.1" xmlns="http://www.w3.org/2000/svg" style="fill-rule:evenodd;clip-rule:evenodd;stroke-linejoin:round;stroke-miterlimit:2;">
    <g transform="matrix(1,0,0,1,-162.669,-55.9995)">
        <path d="M373.336,109.333L294.669,109.333C251.223,109.333 216.003,144.553 216.003,187.999C216.003,231.446 251.223,266.666 294.669,266.666L373.336,266.666L373.336,109.333ZM294.669,55.999L505.336,55.999C578.24,55.999 637.333,115.098 637.333,187.999C637.333,231.02 616.757,269.235 584.901,293.333C616.757,317.431 637.333,355.646 637.333,398.667C637.333,471.568 578.24,530.667 505.336,530.667C475.859,530.667 448.639,521.005 426.669,504.675L426.669,609.333C426.669,682.235 367.571,741.333 294.669,741.333C221.767,741.333 162.669,682.235 162.669,609.333C162.669,566.309 183.25,528.098 215.102,503.999C183.25,479.901 162.669,441.687 162.669,398.667C162.669,355.646 183.25,317.431 215.103,293.333C183.25,269.235 162.669,231.02 162.669,187.999C162.669,115.098 221.767,55.999 294.669,55.999ZM426.669,109.333L426.669,266.666L505.336,266.666C548.784,266.666 584,231.446 584,187.999C584,144.553 548.784,109.333 505.336,109.333L426.669,109.333ZM294.669,477.332L373.336,477.332L373.336,320L294.669,320C251.223,320 216.003,355.22 216.003,398.667C216.003,442.009 251.054,477.165 294.357,477.333L294.669,477.332ZM216.003,609.333C216.003,565.989 251.054,530.835 294.357,530.666L294.669,530.667L373.336,530.667L373.336,609.333C373.336,652.779 338.116,688 294.669,688C251.223,688 216.003,652.779 216.003,609.333ZM426.669,398.51C426.754,355.135 461.942,320 505.336,320C548.784,320 584,355.22 584,398.667C584,442.113 548.784,477.333 505.336,477.333C461.942,477.333 426.754,442.198 426.669,398.823L426.669,398.51Z" style="fill:white;"/>
    </g>
</svg>
