<svg class="svg" xmlns="http://www.w3.org/2000/svg" width="100%" height="100%" viewBox="0 0 16 16">
    <path style="fill:white;" d="m5.68 10.823.353.354 2.701 2.7c.195.196.512.196.707 0l5.401-5.4c.195-.196.195-.513 0-.708l-5.4-5.4c-.196-.196-.513-.196-.708 0l-2.7 2.7-.354.353-.707-.707.353-.353 2.7-2.701c.587-.586 1.536-.586 2.122 0l5.401 5.401c.586.586.586 1.536 0 2.121l-5.4 5.402c-.587.585-1.536.585-2.122 0l-2.7-2.701-.354-.354.707-.707zm3.407-.996c.941 0 1.704-.763 1.704-1.704 0-.941-.763-1.704-1.704-1.704-.767 0-1.416.507-1.63 1.204H0v1h7.458c.213.697.862 1.204 1.63 1.204z" />
</svg>