<svg width="100%" height="100%" viewBox="0 0 600 600" version="1.1" xmlns="http://www.w3.org/2000/svg" style="fill-rule:evenodd;clip-rule:evenodd;stroke-linejoin:round;stroke-miterlimit:2;">
    <path d="M0,208C0,109.948 0,60.922 30.461,30.461C60.922,0 109.948,0 208,0L392,0C490.052,0 539.078,0 569.539,30.461C600,60.922 600,109.948 600,208L600,392C600,490.052 600,539.078 569.539,569.539C539.078,600 490.052,600 392,600L208,600C109.948,600 60.922,600 30.461,569.539C0,539.078 0,490.052 0,392L0,208Z" style="fill:white;fill-rule:nonzero;"/>
    <path d="M414,182L212,182L212,285L315,285L315,388L418,388L418,186C418,183.791 416.209,182 414,182Z" style="fill:rgb(97,97,97);"/>
    <rect x="311" y="285" width="4" height="4" style="fill:rgb(97,97,97);"/>
    <path d="M212,285L311,285C313.209,285 315,286.791 315,289L315,388L216,388C213.791,388 212,386.209 212,384L212,285Z" style="fill:rgb(157,157,157);fill-rule:nonzero;"/>
    <path d="M315,388L418,388L318.414,487.586C317.154,488.846 315,487.953 315,486.172L315,388Z" style="fill:rgb(157,157,157);fill-rule:nonzero;"/>
    <path d="M212,285L113.828,285C112.046,285 111.154,282.846 112.414,281.586L212,182L212,285Z" style="fill:rgb(157,157,157);fill-rule:nonzero;"/>
</svg>
