<svg class="svg" xmlns="http://www.w3.org/2000/svg" width="100%" height="100%" viewBox="0 0 14 14">
    <path style="fill:white;" d="M4 0v3h1V0H4zm9.103.896c-1.162-1.161-3.045-1.161-4.207 0l-2.75 2.75.707.708 2.75-2.75c.771-.772 2.022-.772 2.793 0 .771.77.771 2.021 0 2.792l-2.75 2.75.707.708 2.75-2.75c1.162-1.162 1.162-3.046 0-4.208zM.896 13.103c-1.162-1.161-1.162-3.045 0-4.207l2.75-2.75.707.708-2.75 2.75c-.771.77-.771 2.021 0 2.792.771.772 2.022.772 2.793 0l2.75-2.75.707.707-2.75 2.75c-1.162 1.162-3.045 1.162-4.207 0zM14 10h-3V9h3v1zm-4 1v3H9v-3h1zM3 4H0v1h3V4z" />
</svg>